<?xml version="1.0" encoding="UTF-8"?><svg id="Layer_1" xmlns="http://www.w3.org/2000/svg" viewBox="0 0 324.48 71.36"><defs><style>.cls-1,.cls-2{fill:#fff;}.cls-3{fill:#febe10;}.cls-4{font-size:14.99px;}.cls-4,.cls-5{fill:#92117e;}.cls-4,.cls-6{font-family:PalatinoLinotype-Roman, 'Palatino Linotype';}.cls-6{font-size:16px;}.cls-6,.cls-7{fill:#737a7f;}.cls-8{letter-spacing:-.04em;}.cls-9{fill:#002e6e;}.cls-2{stroke:#000;stroke-miterlimit:10;stroke-width:1.18px;}</style></defs><g><g><rect class="cls-9" x="3.14" y="3.01" width="54.48" height="40.91"/><path class="cls-5" d="M30.38,68.76c15.07,0,27.29-11.87,27.29-26.51S45.46,15.73,30.38,15.73,3.08,27.6,3.08,42.25s12.23,26.51,27.3,26.51Z"/><polyline class="cls-3" points="30.22 45.58 30.22 45.58 35.34 48.92 30.22 52.12"/><polygon class="cls-3" points="13.84 27.57 30.27 35.55 46.9 27.57 30.27 33.13 13.84 27.57"/><polygon class="cls-3" points="13.84 24.11 30.27 32.1 46.9 24.11 30.27 29.68 13.84 24.11"/><path class="cls-3" d="M30.27,39.42l-16.43-5.92v-2.93l16.43,5.86c16.68-5.8,16.64-5.86,16.64-5.86v2.93l-16.64,5.92Z"/><polygon class="cls-3" points="13.84 20.57 30.27 28.55 46.9 20.57 30.27 26.13 13.84 20.57"/><polygon class="cls-3" points="13.84 17.16 30.27 25.15 46.9 17.16 30.27 22.73 13.84 17.16"/><polygon class="cls-3" points="13.84 13.65 30.27 21.64 46.9 13.65 30.27 19.22 13.84 13.65"/><polygon class="cls-3" points="13.84 11.31 13.84 11.31 30.27 16.37 46.9 11.31 30.27 5.67 13.84 11.31"/><path class="cls-1" d="M42.19,45.03l.32-1.62,4.39-1.37,2.09,.49,2.98,2.18-.16,.36,.75,1.84-1.76,1.9-2.19-3.13-1.86-.82-1.12,1.03-1,.4s.17,.52-.29,.71l-1.34-.57,2.29,3.42s-2.89-2.45-8.96,1.14c0,0-2.96,2.39-6.69,3.39,0,0-2.8,.5-5.91,3-3.12,2.49-8.22,3.54-11.43,4.84,0,0,5.06-4.01,6.89-4.76,0,0,2.01-.93,4.39-2.71,2.89-2.16,4.58-2.6,6.42-3.11,0,0,2.55-.77,5.03-3.16,0,0,2.3-1.28,2.78-1.77,0,0,.83-1.01,1.51-2.65l.21,.91s1.45-1.58,1.04-2.61l1.62,2.68Z"/><path class="cls-1" d="M17.88,45.03l-.32-1.62-4.4-1.37-2.09,.49-2.97,2.18,.15,.36-.75,1.84,1.75,1.9,2.2-3.13,1.86-.82,1.12,1.03,1,.4s-.17,.52,.3,.71l1.33-.57-2.29,3.42s2.89-2.45,8.96,1.14c0,0,2.96,2.39,6.69,3.39,0,0,2.8,.5,5.93,3,3.11,2.49,8.14,4.15,11.36,5.46,0,0-5.01-4.63-6.84-5.37,0,0-2.01-.93-4.39-2.71-2.88-2.16-4.58-2.6-6.42-3.11,0,0-2.55-.77-5.04-3.16,0,0-2.29-1.28-2.77-1.77,0,0-.83-1.01-1.5-2.65l-.22,.91s-1.46-1.58-1.04-2.61l-1.61,2.68Z"/><path class="cls-1" d="M54.26,55.3L19.76,37.81h-7.06l39.9,20.15s1.06-1.36,1.67-2.67Z"/><path class="cls-1" d="M7.9,57.24l40.28-19.42h-7.06L6.18,54.63s1.33,2.46,1.72,2.6Z"/></g><g><g><path class="cls-7" d="M67.24,21.26h4.11v.76h-.27c-.33,0-.56,.03-.71,.11-.11,.07-.19,.17-.26,.33-.05,.15-.08,.44-.08,.89v5.68c0,1.01,.1,1.76,.32,2.25,.2,.5,.56,.9,1.04,1.23,.5,.33,1.03,.51,1.61,.51s1.15-.19,1.68-.54c.52-.36,.9-.79,1.11-1.28,.21-.49,.31-1.26,.31-2.32v-5.47c0-.4-.03-.7-.09-.87-.06-.19-.16-.32-.29-.4-.13-.08-.34-.12-.62-.12h-.29v-.76h3.55v.76h-.24c-.41,0-.69,.09-.83,.27-.15,.19-.24,.54-.24,1.06v5.82c0,1.06-.17,1.94-.52,2.65-.33,.71-.82,1.27-1.47,1.68-.65,.41-1.4,.62-2.26,.62-.81,0-1.56-.21-2.23-.63-.67-.43-1.18-.96-1.48-1.58-.32-.64-.48-1.43-.48-2.38v-6.19c0-.41-.02-.7-.09-.86-.06-.16-.16-.29-.27-.36-.12-.07-.33-.1-.62-.1h-.39v-.76Z"/><path class="cls-7" d="M79.59,23.17h3.31l4.86,8.05v-6.12c0-.37-.03-.63-.1-.8-.08-.16-.18-.28-.32-.36-.14-.08-.35-.12-.62-.12h-.27v-.64h3.56v.64h-.19c-.32,0-.54,.02-.65,.08-.16,.07-.28,.2-.37,.4-.07,.19-.11,.45-.11,.81v8.8h-.93l-5.88-9.67v7.67c0,.42,.02,.67,.04,.77,.03,.12,.09,.23,.19,.32,.09,.11,.2,.17,.32,.2,.13,.04,.39,.06,.76,.07v.64h-3.61v-.64h.19c.38,0,.62-.04,.75-.11,.13-.07,.23-.19,.31-.38,.08-.17,.11-.47,.11-.88v-6.81c0-.43-.01-.69-.04-.79-.04-.17-.14-.3-.26-.38-.13-.08-.4-.11-.79-.11h-.27v-.64Z"/><path class="cls-7" d="M91.2,23.17h4.04v.64h-.31c-.28,0-.51,.04-.63,.13-.12,.08-.22,.2-.29,.35-.05,.15-.09,.45-.09,.89v6.95c0,.35,.03,.59,.1,.72,.06,.15,.15,.25,.27,.31,.11,.07,.33,.1,.63,.1h.31v.64h-4.04v-.64h.32c.3,0,.52-.03,.62-.1,.13-.06,.23-.16,.27-.3,.06-.12,.09-.37,.09-.74v-7.08c0-.41-.03-.68-.09-.82-.05-.13-.14-.24-.27-.31-.11-.06-.33-.1-.62-.1h-.32v-.64Z"/><path class="cls-7" d="M95.87,23.17h3.92v.64h-.3c-.28,0-.45,.01-.53,.04-.11,.04-.18,.08-.23,.15-.06,.07-.09,.15-.09,.24,0,.15,.06,.35,.16,.62l2.87,7.42,2.87-7.42c.1-.27,.15-.47,.15-.61,0-.15-.06-.26-.15-.34-.1-.06-.32-.1-.63-.1h-.36v-.64h3.32v.64c-.28,0-.5,.02-.64,.08-.14,.05-.25,.14-.33,.24-.11,.14-.22,.38-.37,.72l-3.62,9.04h-1.11l-3.61-9.04c-.12-.31-.21-.5-.25-.57-.08-.11-.15-.2-.24-.27-.09-.07-.19-.12-.31-.15-.13-.04-.31-.05-.52-.05v-.64Z"/><path class="cls-7" d="M107.65,23.17h8.69l1.09,2.83-.73,.25c-.16-.47-.35-.84-.56-1.1-.2-.27-.44-.5-.72-.68-.27-.18-.55-.31-.84-.37-.29-.06-.8-.1-1.55-.1h-2.6v3.93h1.3c.47,0,.84-.08,1.09-.24,.24-.16,.41-.37,.51-.6,.06-.18,.1-.5,.1-.94v-.19h.73v4.74h-.73v-.4c0-.36-.02-.63-.08-.78-.06-.16-.15-.31-.3-.45-.14-.14-.3-.24-.47-.29-.17-.05-.46-.07-.86-.07h-1.3v3.47c0,.36,.01,.58,.06,.66,.03,.08,.09,.14,.17,.18,.06,.03,.27,.05,.62,.05h1.61c.89,0,1.59-.11,2.1-.32,.5-.22,.94-.54,1.32-.99,.31-.34,.6-.83,.87-1.46l.7,.25-1.2,3.36h-9.05v-.64h.31c.37,0,.59-.02,.67-.07,.14-.06,.24-.17,.31-.33,.05-.09,.09-.31,.09-.66v-7.44c0-.33-.03-.55-.11-.66-.07-.1-.18-.19-.34-.25-.09-.04-.39-.05-.93-.05v-.64Z"/><path class="cls-7" d="M118.98,23.17h5.55c1.05,0,1.84,.11,2.38,.33,.54,.23,.95,.54,1.25,.94,.29,.41,.44,.89,.44,1.43,0,.57-.14,1.06-.42,1.49-.28,.44-.68,.78-1.22,1.03-.53,.24-1.22,.37-2.11,.38l2.8,3.46c.23,.29,.37,.46,.45,.53,.18,.16,.36,.28,.56,.36,.21,.08,.42,.12,.66,.12h.19v.64h-2.43l-3.91-5.12h-1.38v3.34c0,.36,.01,.59,.04,.67,.06,.17,.16,.29,.27,.36,.12,.07,.37,.1,.73,.1h.27v.64h-4.11v-.64h.38c.27,0,.46-.01,.56-.05,.09-.04,.18-.1,.26-.19,.07-.09,.12-.2,.16-.34,.01-.06,.02-.32,.02-.77v-7.05c0-.3-.03-.53-.1-.66-.06-.14-.14-.24-.25-.29-.12-.06-.31-.09-.58-.09h-.45v-.64m2.79,.84v4.04h2.2c.76,0,1.26-.05,1.57-.13,.42-.12,.77-.35,1.01-.68,.25-.33,.37-.75,.37-1.26,0-.42-.09-.79-.27-1.09-.18-.29-.42-.51-.73-.66-.32-.14-.78-.22-1.39-.22h-2.77Z"/><path class="cls-7" d="M137.46,23.17h.55l.81,3.32-.73,.2c-.45-.92-1.03-1.65-1.77-2.18-.61-.45-1.27-.66-2.01-.66-.45,0-.84,.07-1.2,.24-.35,.16-.62,.37-.79,.63-.18,.26-.27,.51-.27,.78,0,.24,.06,.47,.2,.7,.14,.22,.36,.42,.62,.59,.29,.17,.75,.35,1.4,.54l2,.58c.25,.07,.61,.2,1.08,.41,.46,.21,.83,.42,1.08,.65,.26,.23,.46,.52,.6,.84,.15,.33,.23,.69,.23,1.08,0,.85-.37,1.6-1.11,2.23-.75,.63-1.72,.95-2.9,.95-.61,0-1.16-.08-1.63-.27-.48-.17-1.01-.48-1.57-.95l-.36,1.04h-.53l-.72-3.83,.73-.15c.26,.71,.61,1.3,1.03,1.79,.43,.5,.91,.87,1.44,1.13,.52,.25,1.05,.37,1.6,.37,.74,0,1.37-.22,1.93-.67,.46-.37,.68-.81,.68-1.31,0-.46-.16-.84-.49-1.14-.35-.3-.94-.58-1.81-.83l-1.92-.56c-1.07-.31-1.83-.71-2.28-1.19-.44-.48-.66-1.04-.66-1.67,0-.5,.14-.95,.43-1.37,.29-.42,.72-.76,1.3-1.04,.6-.29,1.25-.42,1.95-.42,.59,0,1.16,.09,1.69,.31,.38,.14,.74,.35,1.05,.6l.33-.73Z"/><path class="cls-7" d="M140.57,23.17h4.03v.64h-.3c-.29,0-.5,.04-.62,.13-.14,.08-.23,.2-.29,.35-.06,.15-.09,.45-.09,.89v6.95c0,.35,.03,.59,.11,.72,.05,.15,.15,.25,.27,.31,.12,.07,.32,.1,.63,.1h.3v.64h-4.03v-.64h.33c.29,0,.5-.03,.63-.1,.12-.06,.21-.16,.26-.3,.06-.12,.08-.37,.08-.74v-7.08c0-.41-.02-.68-.08-.82-.06-.13-.15-.24-.26-.31-.13-.06-.34-.1-.63-.1h-.33v-.64Z"/><path class="cls-7" d="M146.26,22.82h.53l.09,.35h6.6l.06-.35h.54l1.11,3.14-.72,.23c-.32-.83-.73-1.42-1.17-1.76-.45-.33-1.03-.5-1.73-.5-.29,0-.47,.01-.51,.04-.07,.02-.1,.06-.13,.12-.02,.05-.04,.23-.04,.53v7.42c0,.36,.02,.6,.06,.74,.03,.12,.1,.22,.17,.29,.06,.07,.16,.11,.29,.14,.13,.03,.41,.05,.86,.05v.64h-4.1v-.64c.45,0,.71-.02,.81-.05,.18-.05,.3-.15,.38-.29,.08-.15,.12-.42,.12-.81v-7.6c0-.24-.01-.39-.04-.43-.01-.06-.06-.09-.13-.12-.06-.03-.19-.05-.38-.05-.56,0-.99,.08-1.33,.21-.33,.15-.64,.39-.95,.73-.29,.34-.54,.78-.74,1.33l-.72-.23,1.09-3.14Z"/><path class="cls-7" d="M155.65,23.17h4.04v.64h-.31c-.28,0-.5,.04-.62,.13-.13,.08-.23,.2-.29,.35-.06,.15-.09,.45-.09,.89v6.95c0,.35,.03,.59,.11,.72,.05,.15,.14,.25,.27,.31,.11,.07,.32,.1,.62,.1h.31v.64h-4.04v-.64h.33c.3,0,.51-.03,.64-.1,.12-.06,.21-.16,.26-.3,.06-.12,.08-.37,.08-.74v-7.08c0-.41-.02-.68-.08-.82-.05-.13-.14-.24-.26-.31-.13-.06-.34-.1-.64-.1h-.33v-.64Z"/></g><g><path class="cls-7" d="M68.35,37.15h.52l.08,.44h6.61l.06-.44h.55l1.11,3.73-.73,.29c-.33-1-.72-1.69-1.18-2.08-.44-.4-1.02-.6-1.72-.6-.29,0-.47,.01-.52,.04-.06,.03-.1,.08-.11,.14-.03,.07-.04,.27-.04,.63v8.75c0,.42,0,.71,.06,.86,.04,.15,.1,.25,.17,.33,.07,.09,.17,.14,.3,.17,.12,.04,.4,.05,.84,.06v.75h-4.1v-.75c.44-.01,.72-.02,.82-.06,.18-.05,.31-.17,.38-.34,.07-.17,.11-.48,.11-.94v-8.96c0-.27-.02-.45-.04-.51-.02-.06-.06-.1-.13-.14-.06-.02-.19-.05-.38-.05-.55,0-.99,.08-1.32,.25-.34,.17-.65,.46-.95,.86-.29,.4-.55,.92-.75,1.56l-.73-.29,1.11-3.73Z"/><path class="cls-7" d="M77.86,39.51h8.7l1.07,2.82-.72,.26c-.16-.47-.34-.83-.55-1.1-.2-.26-.43-.5-.72-.68-.28-.19-.56-.31-.85-.37-.29-.06-.79-.09-1.54-.09h-2.59v3.92h1.29c.48,0,.84-.07,1.09-.24,.25-.17,.42-.36,.52-.61,.07-.17,.1-.49,.1-.94v-.17h.73v4.74h-.73v-.41c0-.37-.02-.63-.07-.77-.06-.16-.16-.32-.3-.45-.14-.14-.3-.24-.47-.28-.17-.06-.46-.08-.86-.08h-1.29v3.47c0,.37,.01,.59,.05,.67,.02,.08,.08,.13,.16,.17,.07,.04,.29,.06,.63,.06h1.6c.89,0,1.59-.11,2.1-.32,.5-.22,.95-.55,1.33-.99,.31-.34,.59-.83,.86-1.45l.7,.24-1.19,3.36h-9.05v-.64h.32c.36,0,.58-.03,.67-.07,.14-.06,.24-.16,.31-.31,.05-.11,.08-.33,.08-.66v-7.45c0-.32-.03-.54-.1-.66-.06-.1-.19-.18-.35-.25-.09-.04-.39-.05-.92-.05v-.64Z"/><path class="cls-7" d="M89.25,39.51h4.12v.64h-.28c-.34,0-.58,.04-.72,.11-.14,.09-.23,.21-.29,.39-.04,.12-.07,.33-.07,.62v4.11l4.05-4.27c.22-.24,.34-.38,.38-.46,.03-.07,.06-.14,.06-.22,0-.1-.05-.17-.14-.22-.09-.05-.28-.07-.58-.07h-.25v-.64h3.8v.64c-.29-.01-.57,.02-.81,.1-.25,.07-.45,.16-.59,.27-.31,.23-.54,.42-.66,.55l-2.87,2.94,3.28,4.37c.29,.4,.52,.67,.71,.82,.16,.14,.35,.24,.53,.31,.19,.06,.47,.09,.86,.09v.64h-4.55v-.64h.27c.3,0,.48,0,.53-.03,.09-.02,.16-.06,.21-.12,.05-.06,.08-.12,.08-.19,0-.13-.17-.44-.53-.92l-2.42-3.26-1.36,1.38v2.1c0,.34,.04,.58,.11,.7,.07,.13,.17,.22,.32,.28,.12,.05,.43,.07,.93,.07v.64h-4.12v-.64h.32c.31,0,.53-.04,.65-.1,.12-.06,.21-.17,.27-.32,.06-.15,.1-.42,.1-.8v-7.1c0-.37-.04-.62-.1-.76-.06-.13-.15-.23-.26-.28-.12-.07-.37-.09-.75-.09h-.24v-.64Z"/><path class="cls-7" d="M100.41,39.51h3.31l4.87,8.04v-6.12c0-.36-.04-.63-.11-.79-.07-.16-.16-.28-.31-.38-.14-.07-.34-.11-.62-.11h-.27v-.64h3.55v.64h-.2c-.32,0-.52,.02-.64,.08-.15,.07-.27,.21-.35,.39-.08,.19-.12,.46-.12,.81v8.8h-.93l-5.88-9.67v7.67c0,.43,0,.68,.04,.77,.03,.13,.09,.24,.19,.33,.09,.1,.19,.16,.32,.2,.13,.04,.37,.05,.76,.06v.64h-3.62v-.64h.21c.37,0,.62-.04,.76-.11,.13-.07,.22-.19,.3-.37,.07-.17,.12-.46,.12-.89v-6.8c0-.43-.03-.69-.04-.79-.05-.17-.13-.3-.27-.38-.13-.08-.39-.11-.79-.11h-.29v-.64Z"/><path class="cls-7" d="M117.81,39.33c.99,0,1.87,.24,2.67,.71,.85,.5,1.5,1.17,1.97,1.97,.46,.81,.69,1.74,.69,2.8,0,1.65-.52,3-1.54,4.03-1.02,1.04-2.33,1.57-3.91,1.57-1.78,0-3.18-.63-4.21-1.88-.86-1.02-1.28-2.23-1.28-3.65,0-1.06,.24-2.01,.73-2.84,.47-.83,1.14-1.49,2.02-2,.88-.48,1.84-.72,2.88-.72m0,.84c-.79,0-1.49,.19-2.05,.55-.58,.37-1.03,.91-1.39,1.61-.34,.71-.52,1.6-.52,2.63s.18,1.85,.51,2.54c.34,.7,.8,1.23,1.37,1.6,.58,.36,1.22,.55,1.95,.55s1.35-.18,1.88-.55c.55-.35,1.01-.93,1.37-1.7,.35-.77,.53-1.63,.53-2.58s-.18-1.85-.53-2.65c-.31-.69-.72-1.18-1.23-1.51-.51-.33-1.14-.5-1.9-.5Z"/><path class="cls-7" d="M124.65,39.51h4.14v.64h-.38c-.29,0-.51,.02-.63,.09-.13,.05-.21,.14-.27,.25-.06,.1-.09,.3-.09,.58v7.46c0,.34,.01,.54,.04,.61,.03,.1,.1,.16,.21,.2,.07,.04,.27,.05,.62,.05h.59c.67,0,1.25-.1,1.75-.29,.49-.19,.9-.47,1.27-.82,.35-.37,.7-.91,1.02-1.64l.7,.24-1.21,3.35h-7.76v-.64h.34c.33,0,.55-.03,.66-.09,.11-.05,.2-.15,.26-.28,.06-.14,.09-.35,.09-.68v-7.27c0-.38-.03-.64-.08-.77-.06-.14-.14-.23-.25-.28-.11-.07-.34-.09-.68-.09h-.34v-.64Z"/><path class="cls-7" d="M139.82,39.33c.99,0,1.87,.24,2.66,.71,.85,.5,1.5,1.17,1.97,1.97,.46,.81,.68,1.74,.68,2.8,0,1.65-.51,3-1.53,4.03-1.03,1.04-2.34,1.57-3.92,1.57-1.77,0-3.17-.63-4.21-1.88-.85-1.02-1.27-2.23-1.27-3.65,0-1.06,.25-2.01,.72-2.84,.48-.83,1.16-1.49,2.03-2,.88-.48,1.84-.72,2.88-.72m0,.84c-.8,0-1.48,.19-2.06,.55-.58,.37-1.04,.91-1.38,1.61-.36,.71-.52,1.6-.52,2.63s.16,1.85,.5,2.54c.34,.7,.8,1.23,1.37,1.6,.57,.36,1.22,.55,1.94,.55s1.35-.18,1.89-.55c.55-.35,1-.93,1.36-1.7,.36-.77,.54-1.63,.54-2.58s-.18-1.85-.54-2.65c-.31-.69-.72-1.18-1.23-1.51-.5-.33-1.13-.5-1.9-.5Z"/><path class="cls-7" d="M155.18,39.51h.56l.87,3.31-.73,.24c-.45-1.05-.99-1.8-1.58-2.24-.6-.45-1.27-.67-2.02-.67-1.1,0-2,.45-2.74,1.36-.74,.9-1.11,1.99-1.11,3.23,0,.91,.2,1.73,.57,2.48,.38,.75,.88,1.33,1.5,1.73,.63,.39,1.31,.58,2.01,.58,.46,0,.89-.07,1.3-.25,.41-.17,.75-.36,1.01-.59,.19-.17,.31-.37,.37-.58,.07-.2,.1-.5,.1-.87v-.51c0-.4-.05-.69-.14-.86-.1-.16-.22-.28-.4-.35-.14-.05-.5-.08-1.09-.08v-.64h4.33v.64h-.35c-.28,0-.49,.03-.6,.08-.11,.05-.2,.15-.24,.28-.05,.11-.08,.36-.08,.71v3.71h-.76l-.4-.93c-.44,.31-.89,.55-1.37,.72-.74,.26-1.46,.39-2.17,.39-1.44,0-2.67-.53-3.7-1.59-1.03-1.05-1.54-2.38-1.54-3.96s.52-2.87,1.56-3.94c1.05-1.07,2.29-1.59,3.75-1.59,.36,0,.71,.03,1.08,.11,.36,.07,.67,.17,.97,.3,.21,.09,.47,.25,.77,.47l.26-.7Z"/><path class="cls-7" d="M159.18,39.51h4.04v.64h-.31c-.29,0-.49,.04-.62,.12-.14,.09-.23,.2-.29,.35-.06,.16-.09,.45-.09,.9v6.95c0,.34,.03,.58,.09,.72,.06,.15,.15,.25,.28,.31,.11,.06,.32,.1,.63,.1h.31v.64h-4.04v-.64h.32c.3,0,.52-.04,.63-.1,.13-.07,.22-.16,.28-.29,.05-.13,.08-.38,.08-.74v-7.1c0-.4-.03-.67-.08-.8-.06-.15-.15-.25-.28-.32-.11-.07-.33-.09-.63-.09h-.32v-.64Z"/></g><g><path class="cls-7" d="M67.24,53.56h3.41l3.12,10.01,3.07-10.01h3.26v.75h-.28c-.33,0-.56,.04-.67,.1s-.2,.18-.26,.34c-.07,.17-.1,.44-.1,.81v8.39c0,.52,.02,.86,.08,1.02,.05,.16,.14,.28,.27,.36,.12,.09,.35,.12,.69,.12h.28v.76h-4.04v-.76h.28c.26,0,.45-.02,.57-.07,.11-.05,.22-.13,.3-.23,.08-.12,.12-.24,.12-.37,.03-.25,.04-.44,.04-.58v-9.31l-3.47,11.32h-.8l-3.48-11.16v8.98c0,.45,.03,.76,.1,.92,.06,.16,.16,.28,.31,.37,.14,.1,.4,.13,.76,.13h.25v.76h-3.78v-.76h.22c.37,0,.63-.05,.77-.14,.16-.1,.27-.22,.34-.39,.07-.17,.1-.49,.1-.98v-8.3c0-.45-.03-.76-.08-.91-.05-.14-.14-.25-.28-.33-.13-.07-.36-.1-.69-.1h-.37v-.75Z"/><path class="cls-7" d="M85.7,55.48h1.26l3.33,8.96c.16,.45,.33,.75,.49,.9,.17,.15,.39,.22,.67,.22h.17v.64h-3.82v-.64c.13-.01,.25-.01,.36-.01,.24,0,.41-.03,.49-.09,.14-.09,.22-.21,.22-.36,0-.1-.07-.37-.22-.8l-.71-2.08h-3.87l-.85,2.33c-.08,.24-.12,.4-.12,.51s.03,.19,.08,.26c.05,.08,.12,.14,.21,.17,.09,.05,.24,.07,.45,.07,.13,0,.25,0,.34,0v.64h-3.18v-.64c.3,0,.51-.03,.64-.09,.13-.05,.25-.15,.35-.28,.09-.13,.22-.41,.38-.83l3.32-8.88m-1.36,5.98h3.31l-1.65-4.6-1.66,4.6Z"/><path class="cls-7" d="M92.43,55.48h5.53c1.05,0,1.84,.1,2.38,.32,.54,.22,.96,.54,1.24,.95,.29,.41,.43,.9,.43,1.44s-.14,1.05-.42,1.49c-.27,.43-.69,.78-1.22,1.03-.53,.24-1.23,.37-2.09,.38l2.79,3.47c.23,.29,.38,.47,.46,.53,.17,.16,.36,.28,.56,.35,.2,.09,.41,.13,.65,.13h.2v.64h-2.43l-3.92-5.12h-1.37v3.35c0,.35,.01,.58,.04,.67,.05,.17,.15,.29,.27,.36,.12,.06,.37,.1,.72,.1h.28v.64h-4.09v-.64h.37c.27,0,.47-.01,.55-.05,.1-.04,.18-.1,.26-.19,.08-.09,.13-.2,.16-.34,.01-.06,.02-.32,.02-.78v-7.04c0-.32-.02-.53-.08-.66-.07-.13-.15-.24-.26-.29-.12-.06-.31-.08-.58-.08h-.44v-.64m2.79,.83v4.04h2.19c.75,0,1.26-.05,1.58-.15,.42-.12,.76-.35,1-.67,.24-.33,.37-.74,.37-1.26,0-.43-.09-.79-.26-1.09-.18-.29-.42-.52-.74-.66-.31-.15-.77-.22-1.38-.22h-2.76Z"/><path class="cls-7" d="M107.72,55.48h1.26l3.32,8.96c.17,.45,.33,.75,.49,.9,.17,.15,.4,.22,.68,.22h.16v.64h-3.81v-.64c.12-.01,.25-.01,.36-.01,.24,0,.4-.03,.49-.09,.14-.09,.21-.21,.21-.36,0-.1-.07-.37-.21-.8l-.71-2.08h-3.88l-.84,2.33c-.09,.24-.13,.4-.13,.51s.03,.19,.08,.26c.05,.08,.13,.14,.22,.17,.1,.05,.25,.07,.45,.07,.14,0,.24,0,.33,0v.64h-3.18v-.64c.31,0,.52-.03,.64-.09,.13-.05,.25-.15,.34-.28,.09-.13,.23-.41,.38-.83l3.33-8.88m-1.35,5.98h3.31l-1.65-4.6-1.66,4.6Z"/></g></g><g><path class="cls-5" d="M100.36,5.46c.39-.63,.02-.4,.02-.4-.13,.31-.25,.09-.25,.09-.45-.39,.48-1.91,.48-1.91,.14-.29-.17,0-.17,0-1.14,1.87-.66,2.31-.66,2.31,.25,.51,.59-.1,.59-.1Z"/><g><path class="cls-5" d="M162.91,13.4s-.44-6.03-.81-7.92c0,0-.12-.56,.19-.18l.42,.53s.12-.54-.19-1.01c0,0-.38-.79-.43-1.05,0,0-.23-.9-.44-.48,0,0-.46,.78-.26,1.08l.69,6.22s.54,3.28,.46,4.23c0,0,.42-.53,.38-1.43Z"/><path class="cls-5" d="M159.58,5.08c-.33,.56-2.74,2.45-3.33,2.9,.37-.24,1.37-.75,1.37-.75,.87-.45,2.16-1.96,2.16-1.96,.46,.42,.58,.1,.58,.1,.29-.44-.32-.75-.32-.75,0,0,.19-.41,.02-1.21-.17-.79-.95,.04-.95,.04-.59,.55-.24,1.04-.24,1.04l.7,.59Zm-.05-1.37c.27-.05,.27,.7,.27,.7l-.5-.36c-.26-.27,.23-.35,.23-.35Z"/><path class="cls-5" d="M156.13,8.08s.05-.04,.12-.1c-.06,.04-.11,.08-.12,.1Z"/><path class="cls-5" d="M159.66,7.75c.2-.45-.07-.19-.07-.19l-.73,1.37c-.31,.61,.17,.92,.17,.92,.6,.03,.57-.76,.57-.76-.15,.29-.4,.16-.4,.16-.22-.08,0-.49,0-.49l.46-1Z"/><path class="cls-5" d="M160.2,11.31c-.96-.69-1.66,.98-1.66,.98-.47,1.34,.76,1.43,.76,1.43,.46-.07,1.29,0,1.29,0,.56,.29,.14,.86,.14,.86-.67,1-2.19,2.13-2.19,2.13-1.12,.93-2.24,.52-2.24,.52-1.72-.87-.66-2.85-.66-2.85,.62-.03,1-.45,1-.45,.74-1.59,.05-2.5,.05-2.5-.4-.64-.54,.74-.54,.74,0,.24,.34,.51,.34,.51,.18,.45-.94,.53-.94,.53-.8-.11-.65-1.08-.65-1.08,.08-.63-.49-.17-.49-.17-1.42,1.2-1.98,1.12-1.98,1.12,.02-.45-.78-1.1-.78-1.1-1.11-.77-1.81,.92-1.81,.92-.44,1.34,.61,1.53,.61,1.53,.74,.29,1.74-.1,1.74-.1v.32c-1.08,1.5-2.85,2.36-2.85,2.36-2.08,1.05-2.68-.72-2.68-.72-.48-1.2,.75-2.23,.75-2.23,.61-.52,.63-1.58,.61-2.01,0-.04,0-.11,0-.24,0-.58-.52-1.22-.52-1.22-.49-.51-.16-.58-.16-.58,.46,.18,.33-.16,.33-.16l-1.06-.9c-.35-.36-.34-.04-.34-.04l-.02,1.01,.26,.32c.08,.37,1.01,1.92,1.01,1.92,.25,.51-.2,.8-.2,.8-.86,1.07-3.94,2.77-3.94,2.77-1.38,.93-5.26,2.45-5.26,2.45,.33,.01,3.84-.72,3.84-.72,.34-.1,.98-.39,.98-.39,.83-.44,3.51-2.09,3.51-2.09-.96,2.82,1.14,3.46,1.14,3.46,2.22,.41,4.55-2.52,4.55-2.52,.44-.51,.4-1.56,.4-1.56l.15-.22c.26,0,1-.67,1-.67,.27-.3,.74-.46,.74-.46,0,1.29,.86,1.36,.86,1.36-.24,.39-.33,1.68-.33,1.68-.08,2.26,1.77,2.29,1.77,2.29,1.91,.11,4.12-2.84,4.12-2.84,.42-.48,.48-1.9,.48-1.9,.03-1.53-1.12-2.3-1.12-2.3Zm-.06,1.33l-.75,.04s-.35-.14,.06-.39c0,0,.33-.2,.75,.18,0,0,.24,.12-.06,.17Zm-9.57,.7s-.23-.16,.18-.33c0,0,.38-.23,.82,.3l-1,.02Z"/><path class="cls-5" d="M141.55,12.91c.97,.14,1.68-1.16,1.68-1.16,.14,.35,.69,.6,.69,.6,1.2,.49,1.44-.77,1.44-.77,.3-1.17-.42-1.51-.42-1.51-.47,.78-.14,1-.14,1,.23,.35-.19,.2-.19,.2-1.26,0-.95-.72-.95-.72,.19-.46-.13-.22-.13-.22-.53,1.08-1,1.31-1,1.31-1.5,.77-1.47-.62-1.47-.62,.28-.62-.1-.42-.1-.42-1.42,1.45-3.33,1.58-3.33,1.58-2.06,.2-2.09-1.15-2.09-1.15,.12-.68-.33-.25-.33-.25-.97,1.58-2.3,1.5-2.3,1.5-1.39-.13-1.32-1.62-1.32-1.62,.3-1.46-.96-1.17-.96-1.17-2.02,.69-2.49,2.82-2.49,2.82-.61,1.92,2.19,1.8,2.19,1.8,.65,.08,.67,.6,.67,.6-.67,.72-2.81,1.67-2.81,1.67-2.68,1.25-4.24-.3-4.24-.3-1.9-1.28-.31-4.7-.31-4.7,.21-.68-.26,0-.26,0-.47,.65-.76,2.47-.76,2.47-.79,4.08,3.09,4.22,3.09,4.22,2.38,.08,5.27-2.33,5.27-2.33,1.29-1.93-.15-2.68-.15-2.68-.71-.05-1.78-.38-1.78-.38-1.24-.59,1.19-1.93,1.19-1.93,.73-.53,.94,.43,.94,.43-.17,1.17,.75,1.89,.75,1.89,1.54,1.1,2.85-.86,2.85-.86,.25-.3,.32-.17,.32-.17,.52,1.44,1.96,1.25,1.96,1.25,1.49,.07,3.39-1.36,3.39-1.36,.09,1.06,1.09,.98,1.09,.98Z"/><path class="cls-5" d="M155.18,8.7s-.31,.49-.43,.98c0,0,.56,.34,.85,.63,0,0,.51-.14,.59-.92,0,0-.34-.47-1.01-.69Z"/><path class="cls-5" d="M149.78,9.78s.55,.35,.85,.63c0,0,.51-.14,.59-.92,0,0-.33-.48-1.01-.69,0,0-.32,.49-.43,.98Z"/><path class="cls-5" d="M153.63,16.64s.4-.62,.5-.82c0,0-.46-.48-1.01-.66l-.56,.95s.75,.34,.88,.53v.19l-.46,.78s.92,.53,1.01,.72c0,0,.53-.72,.53-.94l-.78-.53-.1-.22Z"/><path class="cls-5" d="M156.25,15.81s-.05,.23,.29-.04c0,0,.92-.66,1.85-.97,0,0,.5-.82-.04-.51l-1.95,1.04-.15,.49Z"/><path class="cls-5" d="M152.34,7.6c.04-.1,.26-.2,.26-.2h1.33l-1.56,1.1c1.68-.2,2.2-1.33,2.2-1.33,.6-.63,.18-.68,.18-.68l-1.49-.16c-.59-.05-.61,.14-.61,.14l-.4,.75c-.28,.39,.1,.39,.1,.39Z"/><path class="cls-5" d="M154.92,4.29c.62,.02,.67,1.12,.67,1.12,0,.48,.23,.32,.23,.32,.16-.2,.21-.81,.21-.81,.05-1,.23-1.23,.23-1.23,.29-.36,.69,.47,.69,.47,.22-.42-.18-.93-.18-.93-.73-.95-.83,.76-.83,.76-.05,.84-.21,.78-.21,.78-.25-1.35-.99-1.34-.99-1.34-.62-.25-.47,.46-.47,.46-.09,.42,.64,.41,.64,.41Z"/><path class="cls-5" d="M134.65,4.25c.66,.02,.72,1.11,.72,1.11,0,.49,.25,.31,.25,.31,.17-.19,.24-.81,.24-.81,.04-1,.25-1.23,.25-1.23,.3-.36,.74,.47,.74,.47,.23-.43-.19-.93-.19-.93-.79-.95-.89,.76-.89,.76-.05,.84-.23,.78-.23,.78-.27-1.35-1.08-1.33-1.08-1.33-.66-.24-.51,.46-.51,.46-.1,.42,.71,.41,.71,.41Z"/><path class="cls-5" d="M152.21,3.76s.07,.06,.28-.36c0,0,.22-.52-.45-.18,0,0-4.06,2.02-4.18,2.11,0,0-.22,.29-.15,.62,0,0,3.61-1.91,4.5-2.19Z"/><path class="cls-5" d="M149.26,6.24s-1.7,1.84-.76,2.34c0,0,.74-.01,.57-.69,0,0-.13-.15-.19,.13,0,0-.51,.3-.36-.25,0,0,.72-1.18,.75-1.53Z"/><path class="cls-5" d="M144.22,4.28s.19,.03,.36-.04c0,0,.51-.17,1.03-.02,0,0,.17,.03-.12,.23l-1.34,.84s-.07,.19,.29,.02c0,0,.54-.26,.89-.27,0,0,.42-.08,.92-.86,0,0,1.01-.99,.17-.97,0,0-1.68-.38-1.96,.1,0,0-.56,.82-.24,.97Z"/><path class="cls-5" d="M139.46,8.6c1.07-.05,1.14-1.47,1.14-1.47,.11-.62-.29-.06-.29-.06-.19,.49-.34,.55-.34,.55-1.1-.17-.33-1.86-.33-1.86,.56-.92,.98-2.44,.98-2.44,.07-.23-.19,.1-.19,.1-.82,1.15-1.57,3.65-1.57,3.65-.23,1.39,.61,1.53,.61,1.53Z"/><path class="cls-5" d="M142.61,9.24s.29,.06,1.21-1.12c0,0,.75-1.27-.32-1.12,0,0-.64,.43-.44,.65,0,0,.1,.03,.19-.07,0,0,.55-.11,.14,.58l-.78,1.08Z"/><path class="cls-5" d="M129.49,5.38s.29,.06,1.21-1.12c0,0,.74-1.27-.32-1.12,0,0-.64,.43-.45,.65,0,0,.16-.04,.26-.14,0,0,.69-.31,.11,.71l-.82,1.02Z"/><path class="cls-5" d="M143.85,13.26s-2.09,.86-2.56,1.13c0,0-.4,.44-.18,.65,0,0,2.15-1.01,2.58-1.21,0,0,.2,.02,.34-.27,0,0,.15-.65-.18-.29Z"/><path class="cls-5" d="M139.42,14.33c-1.06,1.23-.67,1.99-.67,1.99,.42,.57,.71-.05,.71-.05,.4-.61-.01-.43-.01-.43-.14,.29-.29,.13-.29,.13-.31-.34,.27-1.53,.27-1.53,.25-.32,0-.11,0-.11Z"/><path class="cls-5" d="M133.92,7.16h1.35l-1.31,.91s-.15,.29,.36,.09c0,0,.61-.3,.89-.24l.63-.69s.98-1.08,.07-1.1l-1.64-.03s-.63,.56-.62,1.11c0,0,.04,.16,.26-.04Z"/><path class="cls-5" d="M128.97,8.04s.66,.47,.75,.6c0,0,.38-.3,.53-.75,0,0-.07-.29,.29-.04l.85,.53,.47-.88s-.63-.64-1.01-.72c0,0-.26-.09-.63,.75l-.82-.53s-.13-.16-.37,.36c0,0-.48,.46-.05,.68Z"/><path class="cls-5" d="M134.19,15.87s.38-.3,.53-.75c0,0-.07-.29,.29-.04l.85,.53,.47-.88s-.62-.63-1.01-.72c0,0-.26-.09-.64,.75l-.82-.53s-.13-.16-.38,.36c0,0-.48,.46-.05,.68,0,0,.66,.47,.76,.6Z"/><path class="cls-5" d="M132.24,16.55s-.41,.95-.63,.76l-.81-.53s-.13-.16-.38,.37c0,0-.48,.46-.05,.68,0,0,.65,.47,.76,.6,0,0,.38-.3,.54-.76,0,0-.08-.29,.28-.03l.85,.53,.47-.88s-.63-.63-1.02-.72Z"/><path class="cls-5" d="M117.64,16.11s-.4,.94-.63,.75l-.82-.53s-.13-.16-.38,.37c0,0-.48,.46-.05,.68,0,0,.65,.47,.76,.6,0,0,.38-.3,.53-.75,0,0-.07-.29,.29-.04l.85,.53,.47-.88s-.62-.63-1.02-.72Z"/><path class="cls-5" d="M118.95,9.57s.68,.44,.78,.56c0,0,.37-.32,.49-.78,0,0-.08-.28,.29-.05l.87,.49,.42-.9s-.65-.6-1.05-.67c0,0-.35,.97-.59,.79l-.85-.49s-.13-.15-.36,.38c0,0-.45,.49-.02,.68Z"/><path class="cls-5" d="M134.32,17.58l-.22,.36s-.12,.39,.33,.09c0,0,1.66-.91,2.46-1.18,0,0,.09-.2,.06-.49,0,0-1.47,.58-2.62,1.21Z"/><path class="cls-5" d="M119.99,17.45l-.22,.36s-.12,.39,.33,.09c0,0,1.66-.91,2.46-1.18,0,0,.09-.19,.05-.48,0,0-1.47,.58-2.62,1.21Z"/><path class="cls-5" d="M124.86,4.35s.29-.2,.77-.18l.61,.05-1.43,1.16s.96-.38,1.44-.45c0,0,1.93-1.71,.77-1.79l-1.48-.03s-.36-.06-.57,.33c0,0-.79,1.14-.11,.91Z"/><path class="cls-5" d="M107.73,4.24s.26-.2,.7-.18l.56,.05-1.3,1.16s.87-.38,1.31-.45c0,0,1.75-1.71,.7-1.79l-1.35-.04s-.32-.06-.52,.33c0,0-.71,1.14-.1,.91Z"/><path class="cls-5" d="M126.44,7.15c-.46,0-1.39,3.29-1.39,3.29-.33,1.07,.27,2.05,.27,2.05,.75,.99,1.42-1.22,1.42-1.22,.15-.77-.34-.28-.34-.28-.24,.81-.63,.59-.63,.59-1.01-.57,.38-3.43,.38-3.43,.34-.71,.27-1,.27-1Z"/><path class="cls-5" d="M126.8,14.02s-.11-.58-.65-.15c0,0-.54,.5-.05,.52,0,0,.51-.18,.14,.41l-.88,1.18,.38-.26s1.21-1.16,1.07-1.7Z"/><path class="cls-5" d="M119.83,4.42s.39,.22,.68,.18c0,0,.33,.38,.38,1.31,0,0,.54-.46,.45-1.95,0,0,.21-.87,.65,.38,0,0,.31-.78-.18-1.16,0,0-.62-.44-.66,.88,0,0-.02,.74-.11,1.04,0,0-.42-1.67-1.22-1.46,0,0-.35,.59,.02,.78Z"/><path class="cls-5" d="M113.32,15.52s-.67-.44-.72,.88c0,0-.02,.74-.12,1.03,0,0-.46-1.67-1.32-1.46,0,0-.37,.59,.01,.78,0,0,.43,.22,.74,.18,0,0,.35,.38,.41,1.32,0,0,.59-.47,.49-1.95,0,0,.23-.87,.7,.38,0,0,.33-.78-.2-1.16Z"/><path class="cls-5" d="M120.76,14.01s1.12-.35,.76-2.24c0,0-.37-.74-.52-.35,0,0-.27,.72,.02,1.04,0,0,.39,.44-.47,.53,0,0-.94,.15-1.11-.66,0,0,.14-1-.49-.38,0,0-1.12,2.02-2.62,1.21,0,0-1.41-.71-2.63-2.27l-4.18-3.95s-.2-.35,.19-.48c0,0,5.26-2.65,7.46-2.54,0,0,.87,.01,.15,.9,0,0-1.13,1.67-.92,2.21,0,0,.1,.06,.4-.62,0,0,.65-1.47,1.06-1.92,0,0,1.06-1.86-.94-1.57,0,0-3.34,.46-7.23,2.6,0,0-.35,.17-.53,.98l-.14,.9s0,.39,.47,.86c0,0,3.3,3.54,3.41,4.45,0,0-.1,1.07-1.31,.67,0,0-.51-.15-.63-.92,0,0-.01-.87-.39-.38,0,0-1.01,.96-1.49,1.16,0,0-.19-.07-.33-.32,0,0-.81-1.53-1.66-.74,0,0-1.55,1.52-.21,2.42,0,0,1,.4,1.71,.03,0,0,.3,.09-.05,.56,0,0-1.58,1.93-3.25,2.26,0,0-2.87,.47-2.28-2.57l.4-1.17s.11-.58-.2-.13c0,0-1.49,2.61-.11,4.43,0,0,1.19,1.2,2.75,.3,0,0,3.45-1.62,3.31-3.91,0,0,1.05-.76,1.46-1.25,0,0,.19,1.28,1.09,1.36,0,0,2.25-.08,1.33-2.58l-.4-.83,2.07,2.09s1.07,1.65,2.6,1.17c0,0,1.12-.31,1.46-1.25,0,0,.22-.46,.32,.06,0,0,.39,1.48,1.67,.84Zm-13.86-.48c.65-.7,1.19,.1,1.19,.1-.84,.13-1.19-.1-1.19-.1Z"/><path class="cls-5" d="M117.2,8.28c-1.25,2.12-.72,2.63-.72,2.63,.26,.57,.64-.11,.64-.11,.43-.72,.02-.45,.02-.45-.09,.33-.32,.23-.32,.23-.49-.44,.57-2.31,.57-2.31,.15-.33-.19,0-.19,0Z"/><path class="cls-5" d="M105.41,5.46c.4-.63,.02-.4,.02-.4-.13,.31-.25,.09-.25,.09-.44-.39,.47-1.91,.47-1.91,.14-.29-.17,0-.17,0-1.13,1.87-.65,2.31-.65,2.31,.24,.51,.58-.1,.58-.1Z"/><path class="cls-5" d="M114.01,8.56l-2.37-.69c-.55-.15-.35,.07-.35,.07,.19-.04,.49,.41,.49,.41l2.01,.57c.65,.21,.7-.47,.7-.47,.57-.78-1.08-.91-1.08-.91-.74-.24-.42-.47-.42-.47,.44-.36,.84-.05,.84-.05,.23,.25,.35-.07,.35-.07,.28-.36-.24-.41-.24-.41-1.38,.03-1.43,.8-1.43,.8-.05,.68,1.56,.81,1.56,.81,.43,.41-.05,.42-.05,.42Z"/><path class="cls-5" d="M94.85,8.85l-2.11-1.12c-.5-.25-.35,0-.35,0,.19,0,.39,.49,.39,.49l1.8,.94c.58,.33,.76-.3,.76-.3,.7-.64-.85-1.08-.85-1.08-.67-.38-.32-.54-.32-.54,.5-.26,.81,.12,.81,.12,.17,.29,.35,0,.35,0,.34-.29-.14-.44-.14-.44-1.33-.25-1.52,.48-1.52,.48-.18,.64,1.33,1.08,1.33,1.08,.33,.47-.14,.38-.14,.38Z"/><path class="cls-5" d="M108.29,9.8c-.5,.72-.28,.91-.28,.91,.22,.1,.72,.48,.72,.48,.26,.23,.5-.23,.5-.23,.42-.59,.1-.8,.1-.8l-.83-.5c-.17-.08-.21,.13-.21,.13Z"/><path class="cls-5" d="M106.38,7.66l.56,.4s.29,.08-.07,.47c0,0-1.8,1.67-2.1,1.85,0,0,.4-.09,.79-.42,0,0,1.32-.74,1.73-1.56,0,0,.26,.06,.33,.23,0,0,.28,.04,.29-.44,0,0-.11-.23-.35-.4,0,0-.11-.1,.01-.43,0,0-.01-1.65-.58-1.21,0,0-1.31,1.04-.61,1.51Zm.54-.89c.26-.11,.27,.75,.27,.75l-.52-.36c-.22-.21,.25-.39,.25-.39Z"/><path class="cls-5" d="M102.02,13.82s1.56-.64,1.54-1.69c0,0,.26-2.03-.59-6.72,0,0-.16-.38,.13-.07l.44,.51s.28,.17-.15-.9c0,0-.75-2.22-.94-1.89,0,0-.35,.87-.28,1.12,0,0,.11,.06,.12,.58l.83,6.82s.42,.7-1.78,1.35c0,0-.27-1.85-1.83-1.34,0,0-.77,.25-.85,1.4,0,0-.21,1.12,.79,1.23,0,0,1.04,.11,1.53-.05,0,0,.22,.38-.18,.73,0,0-1.96,2.06-3.74,2.27,0,0-1.52,.44-1.77-1.38,0,0-.07-1.42,.52-2.16,0,0,.28-1.02-.09-.43,0,0-1.57,2.46-.43,4.45,0,0,.93,1.52,3.02,.28,0,0,2.68-1.62,2.93-2.71,0,0,.27-.87,.22-1.12,0,0,.09-.1,.57-.27Zm-2.74-.79c.56-.78,1.18,.07,1.18,.07-.45,.14-1.18-.07-1.18-.07Z"/><path class="cls-5" d="M94.79,12.92s1.56-1.07,2.33-1.42c0,0,.08-.2,0-.49,0,0-1.41,.73-2.48,1.48l-.18,.38s-.08,.4,.33,.06Z"/><path class="cls-5" d="M94.83,17.54l-.59-.42c-.33-.25-.39-.03-.39-.03l-.27,.51c-.19,.41-.36,.11-.36,.11l-.57-.38c-.26-.25-.34-.02-.34-.02l-.31,.63c-.19,.26,.05,.37,.05,.37,.22,.08,.55,.37,.55,.37,.22,.23,.34,.05,.34,.05,.25-.22,.38-.65,.38-.65,.12-.3,.8,.35,.8,.35,.33,.23,.37,.08,.37,.08l.31-.5c.23-.37,.03-.47,.03-.47Z"/><path class="cls-5" d="M100.95,8.27s.09,0,.18,.21c0,0,.21-.06,.29-.24,.13-.26-.16-.49-.16-.49,.23-.44,.04-1.21,.04-1.21-.09-1.07-1.07,.26-1.07,.26-.63,.64,.44,1.2,.44,1.2,0,0,.26,.02-.03,.28,0,0-2.12,1.7-2.42,1.96,0,0,1.86-.87,2.74-1.97Zm-.41-1.17s-.2-.21,.21-.37c0,0,.27-.13,.23,.7l-.44-.33Z"/><path class="cls-5" d="M93.43,14.27s.37,.03,.65,.33c0,0-.29,.52-1.55,1.08,0,0-2.81,1.69-4.66,1.32,0,0-3.52-.75-1.66-5.13,0,0,.39-.67,.11-.71,0,0-.23-.02-.48,.78,0,0-1.56,3.78,.21,5.4,0,0,1.52,1.63,3.86,.63,0,0,2.89-1.22,3.92-2.08,0,0,1.65-2.53-.62-2.85,0,0,1.45-1.06,.61-2.89,0,0-.8-1.08-1.38-1.43,0,0-1.33-1.03-1.45-1.42,0,0,.24-.05,.69,.16,0,0,.37,.01,0-.28l-1.46-.98s-.31-.17,.14-.37c0,0,3.37-1.51,5.96-2.04,0,0,1.67-.29,1.22,.58,0,0-.71,1.15-.99,2.11,0,0-.18,.62,.21,0,0,0,.88-1.99,1.2-2.45,0,0,.48-.98-.32-1.24,0,0-.57-.16-1.49,.05,0,0-2.48,.42-5.98,2.08,0,0-1.03,1.31-.39,2.18,0,0,.64,.72,.93,1.1,0,0,1.14,1.18,1.58,1.47,0,0,1.73,1.28,1.38,1.93,0,0-.53,.68-2.26,1.32,0,0-.17,0-.25,.71,0,0-.02,.35,.62,.4l1.63,.24Z"/><path class="cls-5" d="M88.53,4c.21,.1,.72,.48,.72,.48,.26,.23,.51-.23,.51-.23,.42-.59,.09-.8,.09-.8l-.83-.5c-.17-.09-.21,.13-.21,.13-.5,.73-.28,.91-.28,.91Z"/><path class="cls-5" d="M88.16,10.47s.26-.18,.7-.16l.56,.05-1.3,1.09s.87-.35,1.31-.42c0,0,1.75-1.62,.7-1.69l-1.34-.03s-.33-.05-.52,.31c0,0-.71,1.08-.1,.85Z"/><path class="cls-5" d="M89.37,14.19s.08-1.19-.56-.79c0,0-.55,.51-.39,.8,0,0,.05,.11,.19-.04,0,0,.49-.31,.26,.25,0,0-.43,1.07-1.02,1.63,0,0,1.19-.82,1.51-1.86Z"/><path class="cls-5" d="M85.55,8.35s-.33,.87-.67,.68c0,0-.59-.7-.22-2.19,0,0,.88-2.08,.98-2.52l1.01-.42s.49-.44,.15-.91c0,0-7.43,3.61-8.17,4.23,0,0-.24,.24-.22,.71,0,0,.11,.15,.32-.09,0,0,3.69-2.22,6.54-3.32,0,0,.04,.17-.27,.65,0,0-1.14,2.09-.87,3.78,0,0,.12,1.72,.93,1.12,0,0,.67-.49,.7-1.67,0,0-.13-.28-.2-.06Z"/><path class="cls-5" d="M81.11,10.01s-.02,.24,.32-.11c0,0,1.17-1.45,.59-1.86,0,0-.31-.38-.66,.27,0,0-.27,.35,.05,.32,0,0,.45-.33,.37,.19,0,0-.25,.76-.67,1.2Z"/><path class="cls-5" d="M79.26,4.3s.45,.17,.76,.09c0,0,.4,.34,.57,1.29,0,0,.53-.54,.26-2.03,0,0,.12-.92,.75,.29,0,0,.24-.83-.34-1.15,0,0-.72-.37-.61,.98,0,0,.06,.75,0,1.06,0,0-.64-1.64-1.49-1.33,0,0-.3,.64,.1,.79Z"/><path class="cls-5" d="M79.03,11.38c-.44,.76-.07,1.21-.07,1.21,.54,.42,.81-.43,.81-.43,.12-.52-.11-.26-.11-.26-.08,.28-.38,.23-.38,.23-.44-.42,.43-1.86,.43-1.86-.22-.08-.68,1.11-.68,1.11Z"/><path class="cls-5" d="M77.05,17.36c-.07,.28-.34,.22-.34,.22-.39-.42,.38-1.86,.38-1.86-.19-.09-.6,1.11-.6,1.11-.39,.76-.05,1.21-.05,1.21,.48,.42,.72-.42,.72-.42,.1-.52-.1-.25-.1-.25Z"/><path class="cls-5" d="M83.62,11.67c-.86-.97-1.75,.83-1.75,.83-.28-.03-.36,.2-.36,.2-.1,.39-.39,.95-.39,.95-1.39,1.62-2.81,.38-2.81,.38-.87-.65-.86-6.18-.86-6.18-.1-1.89-.52-4.46-.52-4.46-.03-.54-.22-.3-.22-.3l-.37,.87c.09,.12,.22,1.16,.22,1.16,.44,1.5,.42,5.8,.73,8.2,.3,2.4,2.26,2.28,2.26,2.28,1.35,.03,2.01-1.89,2.01-1.89,.46,.51,1.75,.85,1.75,.85,.37,.1,.75-.1,.75-.1l.31-.86s0-.05-.01-.07c-.1-.62-.75-1.86-.75-1.86Zm-1.48,1.19c.25-.46,.72-.34,.72-.34,.48,.24,.49,.83,.49,.83l-1.21-.49Z"/><path class="cls-5" d="M82.78,15.93s-.09-.13-.17,.05c0,0-.18,.76-1.12,1.16,0,0-1.62,.78-2.24,.97,0,0,.97-.17,1.25-.11,0,0,1.34-.61,1.71-.85,0,0,.34-.42,.37-.63,0,0,.19-.09,.65,.27,0,0,.28,.16,.43-.16,0,0,.16-.37-.22-1.12,0,0-.33-.32-.65,.42Zm.46,.31l-.31-.16c.38-.33,.31,.16,.31,.16Z"/><path class="cls-5" d="M76.18,11.94l-.83-1.45,.34-.03s.04-.19-.36-.49c0,0-.66-1.13-.76-.65,0,0-.24,1.02,0,1.18,0,0,.11,.09,.25,.47,0,0,1.3,1.78,.77,2.31,0,0-.71,.83-1.31,1.14,0,0-4.91,3.09-6.85,3.73,0,0,2.1-.56,2.87-.53,0,0,.95-.11,1.35-.42l3.56-2.35s1.52-1.34,.95-2.92Z"/><path class="cls-5" d="M75.82,6.82s.19-.07,.25-.34c0,0,.18-.57-.2-.21l-3.52,1.88s-.18,.37-.15,.56l3.62-1.88Z"/><path class="cls-5" d="M74.04,5.11c.1-.39-.07-.32-.15-.06-.08,.26-.26,.09-.26,.09-.53-.66,.41-1.95,.41-1.95,.14-.46-.24-.04-.24-.04-1.02,1.66-.4,2.61-.4,2.61,.57,.22,.64-.66,.64-.66Z"/><path class="cls-5" d="M70.82,12.11s.51,2.64,.22,3.33c0,0,.79-1.26,.36-4.07l-.7-6.07s.42,.4,.53,.66c0,0,.12-.32-.17-.83,0,0-.74-2.48-.94-2.13,0,0-.52,.87-.24,1.08l.94,8.04Z"/></g></g></g><line class="cls-2" x1="173.39" y1="1.7" x2="173.39" y2="66.3"/><text class="cls-6" transform="translate(183.39 30.92)"><tspan x="0" y="0">Al-Sultan</tspan><tspan class="cls-8" x="67.66" y="0"> </tspan><tspan x="71.09" y="0">Abdullah</tspan></text><text class="cls-4" transform="translate(182.72 13.91)"><tspan x="0" y="0">Hospital</tspan></text></svg>